<svg xmlns="http://www.w3.org/2000/svg" width="18" height="20" viewBox="0 0 18 20">
    <path fill="#2796B2" d="M13 12c.066-.66.115-1.32.115-2 0-.68-.05-1.34-.115-2h2.786c.132.64.214 1.31.214 2s-.082 1.36-.214 2M11 18c.554-1.247.98-2.596 1.275-4H15c-.887 1.854-2.3 3.292-4 4m.84-6H7.16c-.1-.66-.16-1.32-.16-2 0-.68.06-1.35.16-2h4.68c.09.65.16 1.32.16 2 0 .68-.07 1.34-.16 2M9.5 18c-.652-1.212-1.178-2.556-1.5-4h3c-.322 1.444-.848 2.788-1.5 4M5.704 6H3c.88-1.865 2.306-3.303 4-4-.556 1.247-.972 2.596-1.296 4M3 14h2.704c.324 1.404.74 2.753 1.296 4-1.694-.708-3.12-2.146-4-4m-.786-2C2.082 11.36 2 10.69 2 10s.082-1.36.214-2H5c-.066.66-.115 1.32-.115 2 0 .68.05 1.34.115 2M9.5 2c.652 1.21 1.178 2.56 1.5 4H8c.322-1.44.848-2.79 1.5-4M15 6h-2.725c-.296-1.404-.72-2.753-1.275-4 1.7.708 3.113 2.135 4 4M9 0C4.023 0 0 4.5 0 10c0 2.652.948 5.196 2.636 7.071C4.324 18.946 6.613 20 9 20c4.97 0 9-4.477 9-10 0-2.652-.948-5.196-2.636-7.071C13.676 1.054 11.387 0 9 0z"/>
</svg>
