<?xml version="1.0" ?><svg style="enable-background:new 0 0 512 512;" version="1.1" viewBox="0 0 512 512" xml:space="preserve" xmlns="http://www.w3.org/2000/svg" xmlns:xlink="http://www.w3.org/1999/xlink"><style type="text/css">
	.st0{fill:#2796B2;}
	.st1{fill:#2796B2;stroke:#2796B2;stroke-width:2;stroke-miterlimit:10;}
	.st2{fill:#FFFFFF;}
</style><g id="Edges"/><g id="Background_Bottom"><g><path class="st0" d="M492.3,443.1c0,34.2-27.7,61.9-61.9,61.9H80.7c-34.2,0-61.9-27.7-61.9-61.9V93.4c0-34.2,27.7-61.9,61.9-61.9    h349.7c34.2,0,61.9,27.7,61.9,61.9V443.1z"/></g></g><g id="Background"><path class="st1" d="M492.3,418.4c0,34.2-27.7,61.9-61.9,61.9H80.7c-34.2,0-61.9-27.7-61.9-61.9V68.6c0-34.2,27.7-61.9,61.9-61.9   h349.7c34.2,0,61.9,27.7,61.9,61.9V418.4z"/></g><g id="Symbol"><path class="st2" d="M399.9,372H111v-30.4h288.9V372z" id="logo-bar"/><path class="st2" d="M205.3,292.7c-8.9,25-20.6,33.1-44.3,33.1c-8,0-15.9-1.5-23.4-4.5V292c6.6,2.7,13.6,4.1,20.8,4.2   c10.5,0,14.9-5.3,14.9-12.1c-0.4-3.8-1.4-7.5-3.1-10.9c-2.1-5.5-50.4-128.6-50.4-128.6h35.8l34.9,103.4h0.4l30.9-103.4h34.3   L205.3,292.7z M266.7,144.5h32.8V156h0.5c11.2-9.8,25.6-15.1,40.4-14.8c34.4,0,60.3,32,60.3,71.3c0,36.1-21.3,71.3-64.1,71.3   c-13.7,0.9-27.2-4-37.2-13.5v53.8h-32.8V144.5z M366.4,212.5c-0.3-19.6-9.3-41.2-34-41.2s-33.7,21.5-34,41.2   c0.3,19.6,9.3,41.1,34,41.1C357.1,253.6,366.1,232.1,366.4,212.5z" id="logo-yp"/></g></svg>
