<svg xmlns="http://www.w3.org/2000/svg" width="185" height="196" viewBox="0 0 185 196">
    <path fill="#2796B2" d="M92.001 73C114.093 73 132 90.758 132 112.663c0 0-9.412 83.337-39.999 83.337C61.414 196 52 112.663 52 112.663 52 90.758 69.91 73 92.001 73zm-58.416 4c8.626 0 16.466 3.276 22.415 8.615-5.681 7.627-9.058 17.06-9.058 27.278l.038.661c.48 4.271 2.927 24.116 8.978 43.997C50.773 170.465 43.511 181 33.585 181 7.902 181 0 110.536 0 110.536 0 92.017 15.037 77 33.585 77zm117.83 0C169.963 77 185 92.018 185 110.535c0 0-7.902 70.465-33.585 70.465-9.926 0-17.188-10.535-22.373-23.45 6.051-19.88 8.498-39.722 8.978-43.997l.038-.66c0-10.217-3.373-19.651-9.058-27.278C134.951 80.276 142.789 77 151.415 77zM33.284 16c7.52 0 14.36 2.885 19.546 7.577-1.124 3.746-1.742 7.714-1.742 11.824 0 9.061 2.948 17.43 7.912 24.22C54.029 68.783 44.378 75 33.284 75 17.11 75 4 61.79 4 45.501 4 29.209 17.111 16 33.284 16zm117.432 0C166.887 16 180 29.21 180 45.501 180 61.791 166.889 75 150.716 75c-11.098 0-20.745-6.218-25.716-15.378 4.962-6.791 7.91-15.16 7.914-24.22 0-4.111-.622-8.077-1.744-11.825C136.355 18.883 143.193 16 150.716 16zM92 0c19.33 0 35 15.67 35 35s-15.67 35-35 35-35-15.67-35-35S72.67 0 92 0z"/>
</svg>
